<svg width="45" height="50" viewBox="0 0 187 239" fill="none" xmlns="http://www.w3.org/2000/svg">
<path fill-rule="evenodd" clip-rule="evenodd" d="M93.5 239C93.5 239 187 145.172 187 93.5217C187 41.8711 145.139 0 93.5 0C41.8614 0 0 41.8711 0 93.5217C0 145.172 93.5 239 93.5 239Z" fill="#BEA972"/>
<path d="M54.1302 87.6072H64.4883L66.5997 92.5472H71.46L61.2613 70.2773H57.3173L47.1982 92.2683L36.6808 80.9143L47.0389 70.2773H41.2224L31.8603 80.0777V70.2773H27V92.5074H31.8603V82.229L41.5411 92.5074H47.0787H47.3974H51.9789L54.1302 87.6072ZM59.3491 75.5361L62.9346 83.8624H55.7636L59.3491 75.5361Z" fill="white"/>
<path d="M87.8735 91.1927C89.6264 90.3162 90.9411 89.0414 91.8574 87.3682C92.7737 85.6949 93.2518 83.703 93.2518 81.3525C93.2518 79.002 92.7737 77.0101 91.8574 75.3767C90.9411 73.7035 89.5866 72.4685 87.8735 71.592C86.1206 70.7156 84.049 70.2773 81.6188 70.2773H73.0137V92.5074H81.579C84.049 92.5074 86.1605 92.0691 87.8735 91.1927ZM77.8342 88.6032V74.2214H81.2205C85.9613 74.2214 88.3516 76.6117 88.3516 81.3924C88.3516 83.8225 87.754 85.6153 86.5588 86.8104C85.3637 88.0056 83.5709 88.6032 81.2205 88.6032H77.8342Z" fill="white"/>
<path d="M112.376 91.3934C114.01 90.4373 115.245 89.1226 116.121 87.4095C116.998 85.6965 117.436 83.6647 117.436 81.354C117.436 79.0434 116.998 77.0515 116.121 75.3384C115.245 73.6253 114.01 72.3106 112.376 71.3944C110.743 70.4781 108.831 70 106.6 70C104.369 70 102.456 70.4781 100.823 71.3944C99.1896 72.3106 97.9546 73.6253 97.0383 75.3384C96.1619 77.0515 95.7236 79.0434 95.7236 81.354C95.7236 83.7045 96.1619 85.6965 97.0383 87.4095C97.9148 89.1226 99.1896 90.4373 100.823 91.3934C102.456 92.3495 104.369 92.7878 106.6 92.7878C108.831 92.8276 110.743 92.3495 112.376 91.3934ZM102.217 87.0908C101.142 85.816 100.624 83.9037 100.624 81.354C100.624 78.8442 101.142 76.9718 102.217 75.6969C103.293 74.4221 104.727 73.7847 106.6 73.7847C108.432 73.7847 109.866 74.4221 110.942 75.6969C112.018 76.9718 112.536 78.884 112.536 81.354C112.536 83.8639 112.018 85.7363 110.942 87.051C109.866 88.3657 108.432 89.0031 106.6 89.0031C104.727 89.0429 103.293 88.3657 102.217 87.0908Z" fill="white"/>
<path d="M135.24 83.5436C134.842 83.2249 134.364 83.0257 133.886 82.9461C134.842 82.6274 135.679 82.1891 136.356 81.5915C137.75 80.3964 138.428 78.8028 138.428 76.8109C138.428 74.7393 137.75 73.1059 136.436 71.9904C135.121 70.8749 133.129 70.2773 130.539 70.2773H120.62V92.5074H125.4V83.5436H128.548C129.185 83.5436 129.783 83.6632 130.261 83.8624C130.739 84.0616 131.137 84.4998 131.336 85.0974L134.165 92.5074H139.304L136.635 85.6153C136.356 84.699 135.878 83.9819 135.24 83.5436ZM129.783 79.8386H125.4V74.0222H129.783C131.217 74.0222 132.213 74.2612 132.85 74.7393C133.488 75.2173 133.806 75.9344 133.806 76.9304C133.806 77.9264 133.488 78.6435 132.85 79.1215C132.213 79.5996 131.177 79.8386 129.783 79.8386Z" fill="white"/>
<path d="M158.108 85.6175C157.75 84.6614 157.272 83.9841 156.674 83.5061C156.276 83.1873 155.798 82.9881 155.32 82.9085C156.276 82.5898 157.112 82.1515 157.79 81.554C159.184 80.3588 159.861 78.7652 159.861 76.7733C159.861 74.7017 159.184 73.0683 157.869 71.9528C156.555 70.8373 154.563 70.2397 151.973 70.2397H142.053V92.4698H146.874V83.5459H150.021C150.658 83.5459 151.256 83.6654 151.734 83.8646C152.212 84.0638 152.61 84.502 152.81 85.0996L155.638 92.5096H160.777L158.108 85.6175ZM151.176 79.8409H146.754V74.0244H151.176C152.611 74.0244 153.606 74.2635 154.244 74.7415C154.881 75.2196 155.2 75.9367 155.2 76.9327C155.2 77.9286 154.881 78.6457 154.244 79.1238C153.606 79.6019 152.571 79.8409 151.176 79.8409Z" fill="white"/>
<path d="M58.912 114.937H63.2943V119.877C62.8959 119.996 62.4577 120.076 62.0194 120.155C61.2226 120.275 60.4259 120.355 59.6291 120.355C57.3583 120.355 55.6851 119.717 54.5696 118.442C53.4541 117.168 52.8963 115.255 52.8963 112.666C52.8963 110.156 53.4143 108.284 54.4899 107.049C55.5655 105.814 57.1591 105.176 59.3104 105.176C60.4657 105.176 61.5015 105.335 62.4975 105.694C63.4536 106.013 64.4894 106.57 65.5252 107.327L67.0789 103.822C66.2025 103.025 65.0472 102.427 63.6528 101.989C62.2585 101.551 60.7844 101.352 59.1909 101.352C56.8802 101.352 54.9281 101.83 53.2151 102.746C51.5418 103.662 50.2272 104.977 49.3109 106.69C48.3946 108.403 47.9165 110.435 47.9165 112.745C47.9165 115.136 48.3946 117.168 49.3109 118.881C50.2272 120.594 51.5418 121.908 53.2947 122.825C55.0078 123.741 57.0794 124.219 59.4299 124.219C60.4259 124.219 61.4218 124.139 62.4178 124.02C63.4138 123.9 64.3699 123.701 65.2464 123.462C66.1627 123.223 66.9594 122.904 67.7164 122.546V111.63H58.9518V114.937H58.912Z" fill="white"/>
<path d="M80.7431 107.568C79.5479 107.568 78.4722 107.926 77.5161 108.644C76.8389 109.161 76.3608 109.839 76.0421 110.675L75.7234 107.926H71.3013C71.4208 108.683 71.4606 109.44 71.5005 110.197C71.5403 110.954 71.5403 111.711 71.5403 112.468V123.782H76.2413V115.496C76.2413 114.699 76.4006 114.022 76.6795 113.464C76.9982 112.906 77.3966 112.468 77.9543 112.149C78.5121 111.831 79.1893 111.671 80.0658 111.671C80.8227 111.671 81.6195 111.831 82.3764 112.189L82.4163 107.887C82.2171 107.807 81.9781 107.727 81.6992 107.687C81.4203 107.608 81.1016 107.568 80.7431 107.568Z" fill="white"/>
<path d="M96.2388 108.564C95.0038 107.887 93.5298 107.568 91.8566 107.568C90.1435 107.568 88.6695 107.926 87.4345 108.564C86.1995 109.241 85.2035 110.197 84.5262 111.432C83.849 112.667 83.5303 114.101 83.5303 115.814C83.5303 117.528 83.849 118.962 84.5262 120.197C85.2035 121.432 86.1596 122.388 87.4345 123.065C88.6695 123.742 90.1435 124.061 91.8566 124.061C93.5298 124.061 94.964 123.742 96.2388 123.065C97.4738 122.388 98.4698 121.432 99.1471 120.197C99.8243 118.962 100.143 117.488 100.143 115.814C100.143 114.141 99.7845 112.667 99.1471 111.432C98.5097 110.197 97.4738 109.241 96.2388 108.564ZM94.5258 119.32C93.8884 120.077 93.0119 120.476 91.8566 120.476C90.6614 120.476 89.7451 120.077 89.1475 119.32C88.5101 118.563 88.1914 117.408 88.1914 115.814C88.1914 114.261 88.5101 113.105 89.1475 112.349C89.785 111.592 90.7013 111.193 91.8566 111.193C93.0119 111.193 93.8884 111.592 94.5258 112.349C95.1632 113.105 95.4819 114.261 95.4819 115.814C95.4421 117.368 95.1234 118.563 94.5258 119.32Z" fill="white"/>
<path d="M113.45 116.693C113.45 117.808 113.132 118.685 112.534 119.362C111.937 120.039 111.14 120.358 110.184 120.358C109.347 120.358 108.71 120.119 108.311 119.641C107.913 119.163 107.714 118.446 107.714 117.45V107.968H103.013V117.41C103.013 119.641 103.491 121.314 104.487 122.39C105.483 123.505 106.957 124.063 108.909 124.063C110.104 124.063 111.14 123.784 112.016 123.187C112.654 122.748 113.211 122.191 113.61 121.474V123.784H118.191V107.968H113.45V116.693Z" fill="white"/>
<path d="M135.201 108.604C134.166 107.887 132.931 107.568 131.576 107.568C130.301 107.568 129.146 107.887 128.19 108.524C127.353 109.082 126.756 109.799 126.397 110.675L126.078 108.006H121.656C121.776 108.763 121.816 109.52 121.855 110.277C121.895 111.034 121.895 111.791 121.895 112.548V130.555H126.596V121.511C126.955 122.189 127.473 122.746 128.19 123.145C129.146 123.742 130.301 124.061 131.576 124.061C132.97 124.061 134.166 123.742 135.201 123.065C136.237 122.388 137.074 121.432 137.671 120.237C138.269 119.002 138.588 117.567 138.588 115.934C138.588 114.301 138.269 112.827 137.671 111.592C137.114 110.277 136.277 109.281 135.201 108.604ZM132.931 119.28C132.293 120.077 131.417 120.436 130.261 120.436C129.066 120.436 128.15 120.037 127.552 119.241C126.915 118.444 126.596 117.289 126.596 115.814C126.596 114.34 126.915 113.145 127.552 112.349C128.19 111.552 129.066 111.153 130.261 111.153C131.417 111.153 132.293 111.552 132.931 112.388C133.568 113.225 133.887 114.38 133.887 115.854C133.847 117.368 133.568 118.524 132.931 119.28Z" fill="white"/>
</svg>
