<svg id="Слой_1" data-name="Слой 1" xmlns="http://www.w3.org/2000/svg" viewBox="0 0 282.33 82.85"><defs><style>.cls-1,.cls-2{fill:#fceb9e}.cls-2{fill-rule:evenodd}</style></defs><title>лого</title><path class="cls-1" d="M287.36 44.41a5.8 5.8 0 0 0-3.28-2.93v-.28q4.86-1.82 4.86-6.44 0-5.83-8.52-5.83h-.13c-1 0-2 0-3.15.06l-2.33.06h-3.21q.24 4.76.24 11.53 0 7-.24 12.64h5.16q-.16-4.87-.16-9.64h2.06a6.42 6.42 0 0 1 1.64.19 3.66 3.66 0 0 1 2.08 1.35q1.15 1.54 3.31 8.11h5.5a63.87 63.87 0 0 0-3.83-8.82zm-7.07-4.31a12.77 12.77 0 0 1-2 .14h-1.73q0-4.62-.2-7.5a15.94 15.94 0 0 1 3.08-.26h.84q3.92.31 3.92 3.66t-3.92 3.96zm-18.87 1.38v-.28q4.86-1.82 4.86-6.44 0-5.83-8.52-5.83h-.13c-1 0-2 0-3.15.06l-2.33.06h-3.21q.24 4.76.24 11.53 0 7-.24 12.64h5.16q-.16-4.87-.16-9.64H256a6.42 6.42 0 0 1 1.64.19 3.66 3.66 0 0 1 2.08 1.35q1.15 1.54 3.31 8.11h5.49a63.85 63.85 0 0 0-3.81-8.81 5.8 5.8 0 0 0-3.29-2.94zm-3.79-1.38a12.77 12.77 0 0 1-2 .14h-1.73q0-4.62-.2-7.5a15.94 15.94 0 0 1 3.08-.26h.84q3.92.31 3.92 3.66t-3.91 3.96zm-24.3-11.61H233a11.32 11.32 0 0 0-8.33 3.74 13.35 13.35 0 0 0-3.49 9.46 12.12 12.12 0 0 0 3.3 8.75 10.92 10.92 0 0 0 8.21 3.44h.31a11.29 11.29 0 0 0 8.33-3.74 13.35 13.35 0 0 0 3.49-9.46 12.13 12.13 0 0 0-3.3-8.76 10.92 10.92 0 0 0-8.19-3.43zm4.49 18.87a5.67 5.67 0 0 1-4.61 2.44H233a6.14 6.14 0 0 1-4.7-2.42 9.57 9.57 0 0 1-2-6.29 9.72 9.72 0 0 1 1.89-6.15 5.66 5.66 0 0 1 4.61-2.43h.2a6.12 6.12 0 0 1 4.71 2.41 9.58 9.58 0 0 1 2 6.29 9.73 9.73 0 0 1-1.89 6.15zM207.59 29a23.09 23.09 0 0 0-2.36-.12l-2.06.06q-1.57.06-2.37.06h-3.25q.24 4.76.24 11.53 0 7-.24 12.64 4.83.22 7.57.22a16.47 16.47 0 0 0 2.47-.18 11.07 11.07 0 0 0 7-3.76 13.68 13.68 0 0 0 3.41-9.16 11.56 11.56 0 0 0-3-8q-2.51-2.74-7.41-3.29zM211 47.14a6.16 6.16 0 0 1-3.39 2.18 9.89 9.89 0 0 1-2.53.3 12.36 12.36 0 0 1-2.41-.24q-.19-4.36-.19-8.8 0-4-.18-7.76a20.29 20.29 0 0 1 2.19-.16 11 11 0 0 1 3.12.41 6.57 6.57 0 0 1 3.23 2 9 9 0 0 1 2.08 6 9.58 9.58 0 0 1-1.92 6.07zM186.82 29h-7q0 1.13-4.34 12.29t-4.33 11.88h5.59a36.06 36.06 0 0 1 1.74-6.95H187a39.27 39.27 0 0 1 1.69 6.95h5.94q0-1-3.93-12.06T186.82 29zm-4.1 13.68h-3.38q3.29-9.64 3.29-10.36h.3q0 .78 3.18 10.36h-3.38zM161 39.22v-.28a34.44 34.44 0 0 0 5.12-5.27q3.4-4 3.4-4.62H164q0 .65-3.21 5.08t-4.13 4.57h-.41q0-4.52.2-9.65h-5.23q.24 4.76.24 11.53 0 7-.24 12.64h5.23q-.2-7-.2-11.25h.56q1.39 0 4.73 5.36 3.14 5 3.14 5.89h6.07q0-.76-3.79-6.67-4.09-6.35-5.96-7.33zm107.41 24.56a6.86 6.86 0 0 0-5.64-2.57 8.6 8.6 0 0 0-4.07.89 6.3 6.3 0 0 0-1.33.94h-.3l-.28-1.6L252 62a72.79 72.79 0 0 1 1 13.7q0 7-.34 12.3h5.05q-.13-4.66-.13-9.21h.22a3 3 0 0 0 .89.67 7.15 7.15 0 0 0 3.2.59 7.45 7.45 0 0 0 6.29-3 11.4 11.4 0 0 0 2.3-7.07 9.41 9.41 0 0 0-2.07-6.2zm-4 11a4.06 4.06 0 0 1-3.66 1.83 5.53 5.53 0 0 1-2-.34 4 4 0 0 1-1-.57q0-4.34-.28-9.56a3.59 3.59 0 0 1 1.3-1 5.7 5.7 0 0 1 2.46-.48 3.71 3.71 0 0 1 3.23 1.69 6.84 6.84 0 0 1 1.17 4 7.94 7.94 0 0 1-1.26 4.45zm-16.1-12.98l-5 .16q.22 3.49.22 13.26a6.69 6.69 0 0 1-3.75 1 2.62 2.62 0 0 1-2.67-1.58q-.67-1.58-.67-6.13 0-3.19.29-6.76l-2.63.09-2.54.09q.35 4.52.36 6.57v3.44q0 4.81 1.55 6.42a4.55 4.55 0 0 0 .69.59A6.8 6.8 0 0 0 238 80a8.69 8.69 0 0 0 5.68-2h.32a6.09 6.09 0 0 0 .3 1.6l4.34-.15a77.06 77.06 0 0 1-.5-8.56q-.02-5.58.17-9.09zm-28.62-.8h-.35a9.72 9.72 0 0 0-6.45 2.65A9.49 9.49 0 0 0 210 71a8.67 8.67 0 0 0 2.66 6.77A9.15 9.15 0 0 0 219 80.2h.32a9.65 9.65 0 0 0 6.46-2.63 9.41 9.41 0 0 0 2.88-7.31 8.77 8.77 0 0 0-2.66-6.82 9.06 9.06 0 0 0-6.31-2.44zm2.91 14.06a3.79 3.79 0 0 1-3.2 1.7h-.06a3.85 3.85 0 0 1-3.23-1.76 7.78 7.78 0 0 1-1.26-4.53 7.11 7.11 0 0 1 1.24-4.27 3.79 3.79 0 0 1 3.2-1.7h.06a3.85 3.85 0 0 1 3.23 1.82 7.83 7.83 0 0 1 1.26 4.53 7.11 7.11 0 0 1-1.24 4.23zM187 67.45a29.65 29.65 0 0 1 .39 4.51 30.56 30.56 0 0 0 .28 4 15.38 15.38 0 0 1-2.45.22 9.77 9.77 0 0 1-1.41-.1 7 7 0 0 1-4.56-2.54 9.45 9.45 0 0 1-2.16-6.18 9.06 9.06 0 0 1 1.91-5.83 6.63 6.63 0 0 1 4.79-2.36h1.05a21 21 0 0 1 5.24.76l.61-4.38a23 23 0 0 0-5.27-.54q-.84 0-1.63.07a12.32 12.32 0 0 0-8.33 3.81 13 13 0 0 0-3.6 9.11 11.93 11.93 0 0 0 3.3 8.49q3 3.2 8.63 3.47h1.05a30.49 30.49 0 0 0 7.39-1.13q-.14-3.55-.15-5.64 0-2.9.15-5.75H187zm13.82-3.61h-.29c0-.23-.11-1-.32-2.4l-4.73.52a36.81 36.81 0 0 1 .93 8.38q0 3.55-.32 9.13H201q-.11-4-.11-11.4a3.47 3.47 0 0 1 3.6-2.45 7.45 7.45 0 0 1 2.79.56l1.08-4.34a8.78 8.78 0 0 0-3-.61 5.22 5.22 0 0 0-4.54 2.61z" transform="translate(-8.83 -13.74)"/><path class="cls-2" d="M45.7 49.66a8.15 8.15 0 0 0 3 .29 7.23 7.23 0 0 0 2.8-.53l-.5-.85a11.28 11.28 0 0 1-4.53-.08 4.66 4.66 0 0 1-1.24-.44 1.38 1.38 0 0 0 .47 1.61zm.5 3.49c.78.39 3.29-.66 4.25-.95l.83-.2.24-.87c-.36 0-2.32.55-2.82.68a4.39 4.39 0 0 1-3.06-.06 1.19 1.19 0 0 0 .56 1.4z" transform="translate(-8.83 -13.74)"/><path class="cls-2" d="M50.81 43.05a1.81 1.81 0 0 1 .62 1.07c0 .24-.2.3-.25.63a1.17 1.17 0 0 0 0 .74c.31.88-.32.79-.29 1.27a10 10 0 0 1 .36 1.41 1.39 1.39 0 0 0 .57 1.15 2.21 2.21 0 0 1 .21 1.44c0 .12-.09.14-.15.26-.52 1.18.17 1.11-.44 1.64-.61.89-.36.4-.18 1.34s-.35 1.11-.24 1.55.22.53.31.82a2.48 2.48 0 0 0 .21.94c.63.91.65 1.6 1.48 1.94 1.21.49.35.8 1.12 1.21a3.42 3.42 0 0 0 .92.22 1.78 1.78 0 0 1 .66.48c.72.48 1.18.13 2 .14.54 0 .94.79 1.68.53a11.48 11.48 0 0 1 1.77-.42c.31.26-.3.73-.42.83-.72.65-.51.84-1.52 1.27-.35.15-.55.35-.93.52-.77.33-1.08 0-2.12.68a16.22 16.22 0 0 0-1.59 2.68c-.8 1.28-2.18 1.8-2.88 2.75a5 5 0 0 1-.6.8c-.44.41-.34 1.84-.35 2.47a1.56 1.56 0 0 0 1.28 1.65l.85-.11c0-.48-.35-.33-.61-.64a1.1 1.1 0 0 1 .62-1c.54-.32.23.53.72.2a2.63 2.63 0 0 0 1-.32 1.12 1.12 0 0 1 .52-.46 10.78 10.78 0 0 1 1.38-.58 2 2 0 0 1 1.12-1.57c.16.27-.36.53-.52.74a.88.88 0 0 0-.1 1c.23.42.52.13.92.17a.82.82 0 0 0 .49.08 2.79 2.79 0 0 0 .47-.21c4-2.53 9.61-3.79 12.47-8.31 1.33-2.11 1.25-3.77 1.46-6.22.11-2.25.09-3.22 2.72-5.24-.31-.4-1.13-.43-.3-1.35a2 2 0 0 1 1.36-.76c-.25-1.19-1.95-1.58-3-1.54-2 .08-2.92 1.28-4 2.71a1.52 1.52 0 0 0-.19.33 2.41 2.41 0 0 1-.24.33A9.62 9.62 0 0 1 66.3 55c.87.65.53.46 1.61.46.3 0 .43 0 .48.34a.42.42 0 0 1-.3.48 2.38 2.38 0 0 1-1.33 0c-.24 0-.46 0-.7-.07a8.77 8.77 0 0 1-1.8-.54 5.89 5.89 0 0 1-2.52-3.86c0-1.52 1-2-.93-2.8-.88-.35-3.1-1.58-4.06-2.05a8.58 8.58 0 0 1-2-1.52 11.8 11.8 0 0 1-1.73-1.75l-2.26-2.92c-.28-.36-.51-.64-.77-1s-.44-.69-.66-1a8.9 8.9 0 0 1-1.14-2.33c-.08-.23-.08-.51-.38-.41-.59.21-1.13 1.54 0 3s2 2.67 3 4.02zm21.51 7.55a2.73 2.73 0 0 1 1-.28 3.4 3.4 0 0 1 1.55.36c-.13.12-.7-.06-.83.07a1.3 1.3 0 0 1-.48.51 1.59 1.59 0 0 1-.87 0A2.46 2.46 0 0 0 72 51c-.29 0-.7.22-.68-.22.19-.1.68-.05 1-.17zM51.83 75.38c-.31.08-4.36 3.94-5.08 4.43a3.27 3.27 0 0 0 2.08-.42 2.71 2.71 0 0 0 1.33-1.21c.38-.52.7-1 1.1-1.44l1.14-1.34c-.4-.01-.52-.03-.57-.02z" transform="translate(-8.83 -13.74)"/><path class="cls-2" d="M48.25 54.41c.33-.08.49-.2.79-.29a5.69 5.69 0 0 0 1.49-.6 1.06 1.06 0 0 0 .35-.66l.5-.58c-.73.27-1.71.45-2.41.79a6.92 6.92 0 0 1-2.71.49c.01 1.22 1.07 1.08 1.99.85zm2.39-7.25a.55.55 0 0 0-.07-.65l-2.8-1A7.16 7.16 0 0 1 45.42 44a2.18 2.18 0 0 0 .18 1.74c.57.86 4.09 1.4 5.04 1.42z" transform="translate(-8.83 -13.74)"/><path class="cls-2" d="M45 46.93c0 .51-.07.23.32.74a1.23 1.23 0 0 0 .59.35 12.11 12.11 0 0 0 5 .3c0-1.05-.33-.75-1.13-.9a10.84 10.84 0 0 1-4.43-1.48 1 1 0 0 0-.35.99zm3 4.67l2.5-.6c.15 0 1.15-.3 1.21-.34l.06-.23a2.54 2.54 0 0 0-.12-.72 10.86 10.86 0 0 1-3.47.61 6.49 6.49 0 0 1-2.74-.42.94.94 0 0 0 .11 1.19 2.38 2.38 0 0 0 2.45.51zm5.68 8.97c-.05-.28 0 0-.11-.24l-.27-.65A6.93 6.93 0 0 0 51.85 61a4.4 4.4 0 0 1-2 .85 1.62 1.62 0 0 0 1.11.39c.68-.03 2.13-1.24 2.72-1.67zm-3.95.86a1.86 1.86 0 0 0 1.27-.36 6.63 6.63 0 0 0 1.85-1.51c-.18-.15-.32-.2-.76-.6l-1.48.79a6.14 6.14 0 0 1-1.58.7c-.03.65.21.98.7.98zM58.38 63c-.15.37-.39.43-.52.74.93-.1 1-.66 1.51-1.62h-.72a5.37 5.37 0 0 0-.27.88zm-8.05-6.46l.28-.18.28-.21a8.86 8.86 0 0 1-.19-.92c-.45.21-.81.43-1.29.65a5.31 5.31 0 0 1-1.5.47h-.5a1 1 0 0 0 .22.92c1.37.26 1.52.06 2.7-.73zM47.66 56a4 4 0 0 0 1.54-.4c.49-.22.81-.42 1.27-.65.72-.36.47-.59.29-1.26-.23 0-1.32.59-1.78.75a4.57 4.57 0 0 1-2.13.41.87.87 0 0 0 .17.81 1.27 1.27 0 0 0 .64.34zm2.5 3.69a5.59 5.59 0 0 1 .85-.5 7.89 7.89 0 0 0 .9-.5l-.39-1a1.61 1.61 0 0 0-.45.26 12.61 12.61 0 0 1-1.34.68c-.83.34-1.4.3-1.56.46-.32.37.06 1.58 1.99.6z" transform="translate(-8.83 -13.74)"/><path class="cls-2" d="M48.06 58.6c.87.35 2.46-.66 3.2-1.08a2.7 2.7 0 0 1-.19-1.05c-.79.22-1.41 1.47-3.47 1.12a.89.89 0 0 0 .46 1.01zm13.55-16.75a7.47 7.47 0 0 0 .76.19.48.48 0 0 0 .36-.55 11.85 11.85 0 0 1-3.83-1.94 1 1 0 0 0-.07 1.32 7.3 7.3 0 0 0 2.78.98zm3.73-11.23a5.33 5.33 0 0 0-.42.57c-.45.85.46 2.24.81 3 .19.42.47.88.66 1.35l.46-.21a4.5 4.5 0 0 0-.58-1.11 7.42 7.42 0 0 1-.68-2.63 4 4 0 0 1 .34-1.43c-.37.02-.22-.04-.59.46zM61 46.79l.08-1c-.51 0-2.23-.13-2.82-.18a1 1 0 0 0 1.06.88c.75.11 1.21.25 1.68.3z" transform="translate(-8.83 -13.74)"/><path class="cls-2" d="M65.95 36.3a1.85 1.85 0 0 0 .15-.6 4.45 4.45 0 0 0-.27-.57l-1.09-2.23-.22-1.45a1.71 1.71 0 0 0-.94.91 16.82 16.82 0 0 0 1 2.15zM73.5 51l.18-.24a1.16 1.16 0 0 0-1.08.16 1.17 1.17 0 0 0 .9.08zM63.33 35.09c.22.26 1.65 2 1.84 2.15l.62-.57-1.41-1.9a21.52 21.52 0 0 1-1.12-2.23 6.58 6.58 0 0 0-.42.55.72.72 0 0 0-.22.7c.07.66.06.54.71 1.3z" transform="translate(-8.83 -13.74)"/><path class="cls-2" d="M67.38 29.07a3.63 3.63 0 0 0-1 1.15 3 3 0 0 0-.38 1.94 8 8 0 0 0 .92 2.46 1.2 1.2 0 0 1 .28.73c0 .16 0 .13-.11.2-.88.52-.66.33-1 1.31a2.05 2.05 0 0 1-.49.51c-.7.45.16.43-1.11 1.65-.42.4-.28.19-.37.88-.12.86-.84 1.08-1 1.55-.39 1.29-.71.66-1.1 1.39a1.68 1.68 0 0 0-.16 1 2.31 2.31 0 0 0-.17 1.16.25.25 0 0 1 0 .13c-.06.6-.3.46-.37 1a1.7 1.7 0 0 0 0 .54c.14.62.06.5-.16.76a.66.66 0 0 0-.16.4l-.05.81c.23.2 1.5.52 1.39 1.67a11 11 0 0 0-.26 1.29c0 1.14 1.22 3.4 2.4 3.81a.38.38 0 0 0 .52-.09 4.76 4.76 0 0 1 1.5-.78 5.87 5.87 0 0 0 .91-.64c.27-.25.56-.5.8-.76 1.12-1.21.84-1 1-2.09A15 15 0 0 1 71 45.13c.17-.37.31-.7.48-1.08.41-.91.1-1.28-.4-2.25l-1.3-2.58c-1.87-3.69-3.16-6.02-2.4-10.15zM61 47.09c0-.08-1.64-.3-2.62-.59 0 1 .23.87.75 1s1.08.22 1.57.29a6.42 6.42 0 0 0 .3-.7zm4.4 8.68l.37.09a4.43 4.43 0 0 0 .8.11c.75.06.84.27 1.5-.13-.11-.1-.06-.06-.26-.08-.36 0-1.24.17-1.51-.16l-.35-.48a1.63 1.63 0 0 0-.85.52.61.61 0 0 0 .3.13zm-4.82-7.31v-.39l-1.46-.25a6.36 6.36 0 0 0 1.46.64zm.05 13.34c-1.14.3-.83.24-1.1.82a1.77 1.77 0 0 0-.21.46 4.44 4.44 0 0 0 1.31-1.28zm.76-17.52l.19-1a15.23 15.23 0 0 1-3.46-.93 1.74 1.74 0 0 0 0 1.14c.18.72 2.74.9 3.27.79zm-2.95-2.09a11.41 11.41 0 0 0 3.14.86l.39-.8c-1.51-.47-2.41-.4-3.66-1.43a1.15 1.15 0 0 0 .13 1.37zm.62 3.19c.77 0 1.4.12 2.22.06l.05-.83a8.42 8.42 0 0 1-3.33-.49c0 .88.11 1.26 1.06 1.26z" transform="translate(-8.83 -13.74)"/><path class="cls-2" d="M62.91 41.14l.41-.43a7.9 7.9 0 0 0-1.07-.54 10.46 10.46 0 0 0-1-.62 4.09 4.09 0 0 1-1.78-1.5 1.57 1.57 0 0 0-.22 1c-.05 1.04 2.75 1.75 3.66 2.09zm-1.15-3.6c.5.3 1.2.73 1.67 1.07A3.29 3.29 0 0 0 64 39l.48-.42A33.84 33.84 0 0 0 62 36.06l-.41-.42a1.06 1.06 0 0 1-.35-.48c-.54 1.03-.62 1.7.52 2.38zm1-1.21l1.46 1.5a1.71 1.71 0 0 0 .56.5.89.89 0 0 0-.18-1.25l-1.66-2a1.91 1.91 0 0 1-.63-1.19 1.28 1.28 0 0 0-.55 1.38 13.07 13.07 0 0 0 1 1.06z" transform="translate(-8.83 -13.74)"/><path class="cls-2" d="M60.17 38.46c.83.84.93.54 1.95 1.26a5.51 5.51 0 0 0 1.44.68l.28-1c-.58-.82-2.81-1.66-3.11-2.4l-.23-.62a2 2 0 0 0-.72 1.41.91.91 0 0 0 .39.67zM46.46 44.4A8.34 8.34 0 0 0 49 45.57a8.36 8.36 0 0 0 1.82.61c.3-.17.06-.71-.13-.85-2-1.29-3.09-1.37-5.15-3.24l-.21-.16a2.07 2.07 0 0 0 1.13 2.47zM58 72.87a.94.94 0 0 0-1 .56 10.43 10.43 0 0 0-.72 1 1.6 1.6 0 0 0 1.16-.55 4.59 4.59 0 0 0 .56-1.01zm-7.53.85v-1.09l-1.44.7a38.86 38.86 0 0 1-9.85 3.21 3.38 3.38 0 0 0-1.63.54 3.79 3.79 0 0 0 1.31 1c.79.37 7.15-1.93 8.57-2.77z" transform="translate(-8.83 -13.74)"/><path class="cls-2" d="M50.85 74.65l-.29-.58c-.72.27-3.1 1.62-4.05 2s-1.93.77-2.95 1.14-2.66.83-3.86 1.22c-.38.15-.56 0-.53.49a5.16 5.16 0 0 0 2.58.64 7.15 7.15 0 0 0 2.43-.79 53.42 53.42 0 0 0 6.67-4.12zm37.6-29.97c2.3-.21 7-2 7.21-4.33A7.46 7.46 0 0 0 92 41.71c-.31.21-.87.66-1.16.82a7.08 7.08 0 0 0 1.44-2.23 8.76 8.76 0 0 0-1.21.41c-2 .71-4.24 2.9-4.24 4.94-.77.39-2.47 1-3.41 1.5 1.81-1.2 3.59-3.39 3.69-5.49-1.94.76-5.19 3.89-4.91 6a11.49 11.49 0 0 0-2.09 1.14c1.27-1.67 2.19-4.11 1.71-6a6.81 6.81 0 0 0-1.19 1.2c-.94 1.17-2.28 4.3-1.67 5.83a4.39 4.39 0 0 0-1.24 1.33l-.14.24a4.86 4.86 0 0 0-.93-.62 2 2 0 0 0-1.3.85c.31 0 .71-.08 1.11-.08h1l-.17.28a6.36 6.36 0 0 0-2 .21c.71.51.55.39.93.32a3.7 3.7 0 0 0 .98-.36l-.2.4-.59.86.48.42h.4a2.77 2.77 0 0 1 .19-1.49l.82-1.31c2.11.36 6.89 1.09 8.52-.79-.84-.93-3.09-.94-4.22-.8a19.19 19.19 0 0 0-3.73.92l.83-.78A11.47 11.47 0 0 1 83 47.6c1.32 1.42 4.72 1.66 6.1 1.35a6.69 6.69 0 0 0 1.63-.48c-1.67-1.54-4.85-1.78-7-1.18l2.27-.93c1 0 1.84.09 2.84.15a12 12 0 0 0 2.9-.25 5.29 5.29 0 0 0 2.26-.93 7 7 0 0 0-3.48-.59 13.89 13.89 0 0 0-2.52.43c.18-.17.24-.28.45-.49zM57.24 62.94c-.31.37-1.2.78-.92 1s1.66-.66 1.8-1.2l.21-.83-.33-.18c-.17.19-.34.72-.76 1.21zM53.1 75.31c-.59.68-1.18 1.19-1.76 1.88l-.78 1a3.17 3.17 0 0 0-.63 1.21 1.72 1.72 0 0 0 .74-.27 3.6 3.6 0 0 0 1.55-1.45 26.67 26.67 0 0 1 1.66-2.35zm-7.43 4.46c1.23-.26 4.72-3.6 5.79-4.5l-.46-.33c-2.52 1.48-5.68 3.9-8.4 4.84.82.61 2.24.22 3.07-.01zM54.69 75a2.07 2.07 0 0 0-1 1.27c-.31.62-1.37 1.57-.84 1.85.94 0 1.64-1.69 1.66-2.36a.65.65 0 0 1 .32-.48 1.09 1.09 0 0 0 .44-.34.54.54 0 0 0-.58.06z" transform="translate(-8.83 -13.74)"/><path class="cls-2" d="M55.87 72.7c-.21.09-.4.19-.59.29a2 2 0 0 0-.48.45 3.83 3.83 0 0 1-1.41.36c-.44.49.09-1-.83.26a1.65 1.65 0 0 0 .44.29.66.66 0 0 0 .59-.06 1 1 0 0 1 1.09.06 3.89 3.89 0 0 1-.9.21 1.59 1.59 0 0 0-.53.32c.29.56 1.47-.42 1.82-.35l.58.23c.2.08 1-1.34 1.44-2-.47-.28-.24-.48-1.22-.06zm-5.56-27.96a1.28 1.28 0 0 0 .52.25c0-.38.13-.28-.52-.82l-4.16-3.66-.57-.77c-.43.38-.07 1.68.19 2 1.41 1.62 3.16 2.03 4.54 3zM53 61.48a7.19 7.19 0 0 1-1.8 1.05c.49.43 1.42.29 2.52-.49a3.44 3.44 0 0 0 1.08-1.09c-1.08-.15-.5-.53-1.8.53zM46.62 40.5l.88.78 2.59 2.28a3.91 3.91 0 0 0 .94.73 1 1 0 0 0-.36-.9c-.22-.28-.37-.52-.6-.8l-2.45-3.34a4.11 4.11 0 0 1-.78-1.82 2.07 2.07 0 0 0-.95 2.18 2.29 2.29 0 0 0 .73.89zm-8.77 35.83a1.47 1.47 0 0 0 1.05-.07c.37-.08.71-.18 1.07-.24a34.83 34.83 0 0 0 8-2.45c.58-.28 1.1-.62 1.7-.89a1.88 1.88 0 0 0 .84-.47s.11-.9.17-1.13a8.79 8.79 0 0 0-1.54.66A27.73 27.73 0 0 1 44 73.52c-1.69.43-7.42 1.19-7.53 1.55a4.42 4.42 0 0 0 1.38 1.26zm17.49-13.22a2.21 2.21 0 0 1-.38.24 3.34 3.34 0 0 0-.44.21c.4.54 2.1-.19 2.61-1l.49-.89a4.28 4.28 0 0 1-1.14.1c-.48-.02-.28.66-1.14 1.34z" transform="translate(-8.83 -13.74)"/><path class="cls-2" d="M55.14 61.14a6 6 0 0 0-.69.71 11.7 11.7 0 0 1-1.15.87c-1 .82 1.63.81 2.25-.29l.45-.79c-.13-.1-.28-.16-.43-.27a.52.52 0 0 0-.43-.23z" transform="translate(-8.83 -13.74)"/><path class="cls-2" d="M56.26 5.89l1.91-1.4 1.91 1.4-.73-2.25 1.92-1.39H58.9L58.17 0l-.73 2.25h-2.36l1.91 1.39-.73 2.25zm12.95.88l1.91-1.4 1.92 1.4-.74-2.25 1.92-1.39h-2.37L71.12.88l-.72 2.25h-2.37l1.92 1.39-.74 2.25zm12.66 3.4l1.92-1.39 1.91 1.39-.74-2.25 1.92-1.39-2.37.01-.72-2.25-.73 2.25-2.37-.01 1.92 1.39-.74 2.25zm15.84 3.8l1.92-1.39h-2.37l-.73-2.25-.72 2.25h-2.37l1.92 1.39-.74 2.25 1.91-1.4 1.92 1.4-.74-2.25zm8.98 10.04l1.91 1.4-.74-2.25 1.92-1.39h-2.37l-.72-2.25-.73 2.25h-2.37l1.92 1.39-.74 2.25 1.92-1.4zm3.96 9.68l-.74 2.25 1.91-1.39 1.92 1.39-.74-2.25 1.92-1.39-2.37.01-.73-2.26-.73 2.26-2.36-.01 1.92 1.39zm5.65 10.58h-2.37l-.73-2.25-.73 2.25h-2.37l1.92 1.39-.73 2.25 1.91-1.4 1.91 1.4-.73-2.25 1.92-1.39zm-7.1 11.98l-.73-2.25-.72 2.25h-2.37l1.92 1.38-.74 2.25 1.91-1.39 1.92 1.39-.74-2.25 1.92-1.38h-2.37zm-8.49 9.47l-.73-2.25-.73 2.25h-2.36l1.91 1.39-.73 2.25 1.91-1.4 1.91 1.4-.73-2.25 1.92-1.39h-2.37zM90.24 72.4l-.73-2.25-.73 2.25h-2.36l1.91 1.39-.73 2.25 1.91-1.4 1.91 1.4-.73-2.25 1.92-1.39h-2.37zm-12.76 4.55l-.73-2.25-.73 2.25-2.36-.01 1.91 1.39-.73 2.25 1.91-1.39 1.91 1.39-.73-2.25 1.92-1.39-2.37.01zm-13.09 2.27l-.73-2.26-.72 2.26-2.37-.01 1.92 1.39-.74 2.25 1.91-1.39 1.92 1.39-.74-2.25 1.92-1.39-2.37.01zM51.45 79l-.73-2.26-.73 2.26-2.36-.01 1.92 1.39-.74 2.25 1.91-1.39 1.91 1.39-.73-2.25 1.92-1.39-2.37.01zm-13.01-2.31l-.73-2.25-.73 2.25h-2.37l1.92 1.38-.73 2.25 1.91-1.39 1.91 1.39-.73-2.25 1.91-1.38h-2.36zm-12.08-4.77l-.73-2.25-.73 2.25h-2.36l1.91 1.38-.73 2.25 1.91-1.39 1.92 1.39-.74-2.25 1.92-1.38h-2.37zm-10.12-6.66l-.73-2.25-.72 2.25h-2.37l1.92 1.38-.74 2.26 1.91-1.4 1.92 1.4-.74-2.26 1.92-1.38h-2.37zm-8.68-10l-.73-2.25-.73 2.25H3.74l1.91 1.39-.73 2.25 1.91-1.4 1.91 1.4-.73-2.25 1.92-1.39H7.56zM4.27 44.78l1.92-1.39H3.82l-.72-2.25-.73 2.25H0l1.92 1.39-.74 2.25 1.92-1.4 1.91 1.4-.74-2.25zm-1.73-9.44l1.91-1.4 1.91 1.4-.73-2.25 1.91-1.39H5.18l-.73-2.25-.73 2.25H1.35l1.92 1.39-.73 2.25zM12.85 21l1.92-1.39H12.4l-.72-2.25-.73 2.25H8.58L10.5 21l-.74 2.25 1.92-1.4 1.91 1.4-.74-2.25zm10.1-8.09l1.92-1.39-2.37.01-.72-2.25-.73 2.25-2.37-.01 1.92 1.39-.74 2.25 1.92-1.39 1.91 1.39-.74-2.25zm8.48-3.11l1.91-1.4 1.91 1.4-.73-2.25 1.92-1.39h-2.37l-.73-2.25-.73 2.25h-2.36l1.91 1.39-.73 2.25zm11.83-2.99l1.91-1.39 1.92 1.39-.74-2.25 1.92-1.39-2.37.01-.73-2.26-.72 2.26-2.37-.01 1.91 1.39-.73 2.25z"/></svg>