<svg width="90" height="98" viewBox="0 0 90 98" fill="none" xmlns="http://www.w3.org/2000/svg">
    <g filter="url(#filter0_d)">
        <path fill-rule="evenodd" clip-rule="evenodd" d="M45 58C45 58 60 43.0818 60 34.8696C60 26.6573 53.2843 20 45 20C36.7157 20 30 26.6573 30 34.8696C30 43.0818 45 58 45 58Z" fill="#C8A0A0"/>
    </g>
    <mask id="mask0" mask-type="alpha" maskUnits="userSpaceOnUse" x="30" y="20" width="30" height="38">
        <path fill-rule="evenodd" clip-rule="evenodd" d="M45 58C45 58 60 43.0818 60 34.8696C60 26.6573 53.2843 20 45 20C36.7157 20 30 26.6573 30 34.8696C30 43.0818 45 58 45 58Z" fill="white"/>
    </mask>
    <g mask="url(#mask0)">
        <path d="M48.6666 33.8271H47.1281V35.581H45.3589V37.1061H47.1281V38.8599H48.6666V37.1061H50.4358V35.581H48.6666V33.8271Z" fill="white"/>
        <path d="M44.5896 34.8187H46.3588V33.0648H49.4357V34.8187H50.328C50.6477 34.3103 50.8332 33.734 50.8332 33.1022C50.8332 31.3412 49.3934 29.9133 47.6172 29.9133C46.5381 29.9133 45.5832 30.4403 44.9998 31.2489C44.4165 30.4402 43.4616 29.9131 42.3824 29.9131C40.6063 29.9131 39.1665 31.3406 39.1665 33.1017C39.1665 33.8672 39.4386 34.5696 39.8921 35.1193L44.9998 41.2495L46.3588 39.6184V37.8689H44.5896V34.8187Z" fill="white"/>
    </g>
    <defs>
        <filter id="filter0_d" x="0" y="0" width="90" height="98" filterUnits="userSpaceOnUse" color-interpolation-filters="sRGB">
            <feFlood flood-opacity="0" result="BackgroundImageFix"/>
            <feColorMatrix in="SourceAlpha" type="matrix" values="0 0 0 0 0 0 0 0 0 0 0 0 0 0 0 0 0 0 127 0"/>
            <feOffset dy="10"/>
            <feGaussianBlur stdDeviation="15"/>
            <feColorMatrix type="matrix" values="0 0 0 0 0.285794 0 0 0 0 0.285794 0 0 0 0 0.285794 0 0 0 0.46 0"/>
            <feBlend mode="normal" in2="BackgroundImageFix" result="effect1_dropShadow"/>
            <feBlend mode="normal" in="SourceGraphic" in2="effect1_dropShadow" result="shape"/>
        </filter>
    </defs>
</svg>
