<svg width="90" height="99" viewBox="0 0 90 99" fill="none" xmlns="http://www.w3.org/2000/svg">
    <g filter="url(#filter0_d)">
        <path fill-rule="evenodd" clip-rule="evenodd" d="M45 58.3333C45 58.3333 60 43.2843 60 35C60 26.7157 53.2843 20 45 20C36.7157 20 30 26.7157 30 35C30 43.2843 45 58.3333 45 58.3333Z" fill="#94AB7A"/>
    </g>
    <mask id="mask0" mask-type="alpha" maskUnits="userSpaceOnUse" x="30" y="20" width="30" height="39">
        <path fill-rule="evenodd" clip-rule="evenodd" d="M45 58.3333C45 58.3333 60 43.2843 60 35C60 26.7157 53.2843 20 45 20C36.7157 20 30 26.7157 30 35C30 43.2843 45 58.3333 45 58.3333Z" fill="white"/>
    </mask>
    <g mask="url(#mask0)">
        <path fill-rule="evenodd" clip-rule="evenodd" d="M51.2542 31.9209C51.2542 30.7879 50.3789 29.8559 49.2563 29.7414C48.9413 28.9068 48.1259 28.3107 47.1664 28.3107C46.7463 28.3107 46.3549 28.4269 46.0196 28.6251C45.6383 27.9542 44.9094 27.5 44.0716 27.5C42.9608 27.5 42.0422 28.2986 41.8717 29.3426C41.7811 29.3317 41.6894 29.3242 41.5958 29.3242C40.3639 29.3242 39.3649 30.3053 39.3649 31.5158C39.3649 31.5751 39.3694 31.6332 39.3741 31.6913C38.7493 32.0797 38.3335 32.7626 38.3335 33.5426C38.3335 34.2321 38.6582 34.8462 39.1649 35.248C39.1627 35.2874 39.1587 35.3266 39.1587 35.3666C39.1587 36.5768 40.1574 37.5581 41.3896 37.5581C41.7589 37.5581 42.1062 37.4686 42.4129 37.3128C42.8379 37.6126 43.4464 37.9877 43.741 37.9129C43.741 37.9129 43.8506 39.5808 43.8269 40.0043C43.7819 40.8102 43.5358 41.7073 43.3626 42.4333H46.0448C46.0448 42.4333 45.6494 40.8148 45.6321 40.2744C45.6149 39.734 45.8041 38.7389 45.8041 38.7389L46.7345 37.7934C47.0927 38.034 47.5253 38.1707 47.9919 38.1707C49.1453 38.1707 50.0939 37.3087 50.2105 36.2058C51.0601 35.8963 51.6668 35.0931 51.6668 34.1505C51.6668 33.5939 51.454 33.0876 51.1061 32.7009C51.2002 32.4584 51.2542 32.1961 51.2542 31.9209ZM42.9283 36.9509C43.1071 36.7832 43.2571 36.5872 43.3717 36.3696L43.8097 37.2711C43.8094 37.2711 43.5712 37.3744 42.9283 36.9509ZM44.566 37.5077C44.3393 37.5481 43.9533 36.8625 43.6794 36.3052C43.9831 36.4574 44.326 36.545 44.6906 36.545C44.7842 36.545 44.8761 36.5375 44.9668 36.5264C44.8963 36.9724 44.7722 37.4707 44.566 37.5077ZM45.5289 37.9463C45.0047 38.0893 45.3185 37.0226 45.4688 36.405C45.5775 36.3653 45.6826 36.3186 45.7827 36.2632C45.843 36.7133 46.042 37.1194 46.3369 37.4405C46.0815 37.6634 45.7873 37.8759 45.5289 37.9463Z" fill="white"/>
    </g>
    <defs>
        <filter id="filter0_d" x="0" y="0" width="90" height="98.3333" filterUnits="userSpaceOnUse" color-interpolation-filters="sRGB">
            <feFlood flood-opacity="0" result="BackgroundImageFix"/>
            <feColorMatrix in="SourceAlpha" type="matrix" values="0 0 0 0 0 0 0 0 0 0 0 0 0 0 0 0 0 0 127 0"/>
            <feOffset dy="10"/>
            <feGaussianBlur stdDeviation="15"/>
            <feColorMatrix type="matrix" values="0 0 0 0 0.285794 0 0 0 0 0.285794 0 0 0 0 0.285794 0 0 0 0.46 0"/>
            <feBlend mode="normal" in2="BackgroundImageFix" result="effect1_dropShadow"/>
            <feBlend mode="normal" in="SourceGraphic" in2="effect1_dropShadow" result="shape"/>
        </filter>
    </defs>
</svg>
