<svg width="90" height="98" viewBox="0 0 90 98" fill="none" xmlns="http://www.w3.org/2000/svg">
    <g filter="url(#filter0_d)">
        <path fill-rule="evenodd" clip-rule="evenodd" d="M45 58C45 58 60 43.0818 60 34.8696C60 26.6573 53.2843 20 45 20C36.7157 20 30 26.6573 30 34.8696C30 43.0818 45 58 45 58Z" fill="#979EA8"/>
    </g>
    <mask id="mask0" mask-type="alpha" maskUnits="userSpaceOnUse" x="30" y="20" width="30" height="38">
        <path fill-rule="evenodd" clip-rule="evenodd" d="M45 58C45 58 60 43.0818 60 34.8696C60 26.6573 53.2843 20 45 20C36.7157 20 30 26.6573 30 34.8696C30 43.0818 45 58 45 58Z" fill="white"/>
    </mask>
    <g mask="url(#mask0)">
        <path d="M37.9424 31.4325L38.7063 31.8779C38.8915 31.7222 39.1186 31.6234 39.3596 31.5936L44.7592 30.9361C44.897 30.9193 45.0224 31.0164 45.0393 31.1529C45.0563 31.2897 44.9584 31.414 44.8204 31.4308L39.4209 32.0884C39.3397 32.0989 39.2607 32.1225 39.1872 32.1584L44.7876 35.4305L51.6328 31.4325L44.7876 27.4346L37.9424 31.4325Z" fill="white"/>
        <path d="M44.66 35.9347L39.7617 33.0742V35.6676C39.7617 36.3534 40.3598 37.0201 41.4025 37.4966C42.4712 37.9509 43.6247 38.1766 44.7876 38.1587C45.9503 38.1767 47.1038 37.951 48.1726 37.4966C49.2154 37.0201 49.8135 36.3534 49.8135 35.6676V33.0742L44.9153 35.9347C44.8365 35.9807 44.7388 35.9807 44.66 35.9347Z" fill="white"/>
        <path d="M39.0078 41.1479L38.5052 38.4077L37.5 41.6461L39.0078 41.1479Z" fill="white"/>
        <path d="M39.2593 37.6605C39.2588 37.3447 39.0573 37.0636 38.7567 36.959V32.8303C38.7574 32.7255 38.7805 32.622 38.8246 32.5266C38.8969 32.3659 39.0242 32.2358 39.1839 32.1589L38.7049 31.8784C38.5747 31.9879 38.4682 32.1225 38.3922 32.274C38.3027 32.4461 38.2555 32.6367 38.2541 32.8303V36.959C37.8936 37.0863 37.6869 37.4615 37.7736 37.831C37.8605 38.2005 38.2131 38.4466 38.5933 38.4029C38.9734 38.3594 39.26 38.0398 39.2593 37.6605Z" fill="white"/>
    </g>
    <defs>
        <filter id="filter0_d" x="0" y="0" width="90" height="98" filterUnits="userSpaceOnUse" color-interpolation-filters="sRGB">
            <feFlood flood-opacity="0" result="BackgroundImageFix"/>
            <feColorMatrix in="SourceAlpha" type="matrix" values="0 0 0 0 0 0 0 0 0 0 0 0 0 0 0 0 0 0 127 0"/>
            <feOffset dy="10"/>
            <feGaussianBlur stdDeviation="15"/>
            <feColorMatrix type="matrix" values="0 0 0 0 0.285794 0 0 0 0 0.285794 0 0 0 0 0.285794 0 0 0 0.46 0"/>
            <feBlend mode="normal" in2="BackgroundImageFix" result="effect1_dropShadow"/>
            <feBlend mode="normal" in="SourceGraphic" in2="effect1_dropShadow" result="shape"/>
        </filter>
    </defs>
</svg>