<svg width="90" height="98" viewBox="0 0 90 98" fill="none" xmlns="http://www.w3.org/2000/svg">
    <g filter="url(#filter0_d)">
        <path fill-rule="evenodd" clip-rule="evenodd" d="M45 58C45 58 60 43.0818 60 34.8696C60 26.6573 53.2843 20 45 20C36.7157 20 30 26.6573 30 34.8696C30 43.0818 45 58 45 58Z" fill="#AC99B2"/>
    </g>
    <mask id="mask0" mask-type="alpha" maskUnits="userSpaceOnUse" x="30" y="20" width="30" height="38">
        <path fill-rule="evenodd" clip-rule="evenodd" d="M45 58C45 58 60 43.0818 60 34.8696C60 26.6573 53.2843 20 45 20C36.7157 20 30 26.6573 30 34.8696C30 43.0818 45 58 45 58Z" fill="white"/>
    </mask>
    <g mask="url(#mask0)">
        <path fill-rule="evenodd" clip-rule="evenodd" d="M38.3335 29.0869V30.326H39.5835L41.8335 35.0347L40.9585 36.5217C40.896 36.7076 40.8335 36.9554 40.8335 37.1413C40.8335 37.8228 41.396 38.3804 42.0835 38.3804H49.5835V37.1413H42.3335C42.271 37.1413 42.2085 37.0793 42.2085 37.0173V36.9554L42.771 35.9021H47.396C47.896 35.9021 48.271 35.6543 48.4585 35.2825L50.7085 31.2554C50.8335 31.1315 50.8335 31.0695 50.8335 30.9456C50.8335 30.5739 50.5835 30.326 50.2085 30.326H40.9585L40.396 29.0869H38.3335ZM42.0835 39C41.396 39 40.8335 39.5576 40.8335 40.2391C40.8335 40.9207 41.396 41.4783 42.0835 41.4783C42.771 41.4783 43.3335 40.9207 43.3335 40.2391C43.3335 39.5576 42.771 39 42.0835 39ZM47.0835 40.2391C47.0835 39.5576 47.646 39 48.3335 39C49.021 39 49.5835 39.5576 49.5835 40.2391C49.5835 40.9207 49.021 41.4783 48.3335 41.4783C47.646 41.4783 47.0835 40.9207 47.0835 40.2391Z" fill="white"/>
    </g>
    <defs>
        <filter id="filter0_d" x="0" y="0" width="90" height="98" filterUnits="userSpaceOnUse" color-interpolation-filters="sRGB">
            <feFlood flood-opacity="0" result="BackgroundImageFix"/>
            <feColorMatrix in="SourceAlpha" type="matrix" values="0 0 0 0 0 0 0 0 0 0 0 0 0 0 0 0 0 0 127 0"/>
            <feOffset dy="10"/>
            <feGaussianBlur stdDeviation="15"/>
            <feColorMatrix type="matrix" values="0 0 0 0 0.285794 0 0 0 0 0.285794 0 0 0 0 0.285794 0 0 0 0.46 0"/>
            <feBlend mode="normal" in2="BackgroundImageFix" result="effect1_dropShadow"/>
            <feBlend mode="normal" in="SourceGraphic" in2="effect1_dropShadow" result="shape"/>
        </filter>
    </defs>
</svg>