<svg width="45" height="50" viewBox="0 0 187 239" fill="none" xmlns="http://www.w3.org/2000/svg">
<path fill-rule="evenodd" clip-rule="evenodd" d="M93.5 239C93.5 239 187 145.172 187 93.5217C187 41.8711 145.139 0 93.5 0C41.8614 0 0 41.8711 0 93.5217C0 145.172 93.5 239 93.5 239Z" fill="black"/>
<path d="M53.1302 87.6072H63.4883L65.5997 92.5472H70.46L60.2613 70.2773H56.3173L46.1982 92.2683L35.6808 80.9143L46.0389 70.2773H40.2224L30.8603 80.0777V70.2773H26V92.5074H30.8603V82.229L40.5411 92.5074H46.0787H46.3974H50.9789L53.1302 87.6072ZM58.3491 75.5361L61.9346 83.8624H54.7636L58.3491 75.5361Z" fill="#BEA972"/>
<path d="M86.8735 91.1927C88.6264 90.3162 89.9411 89.0414 90.8574 87.3682C91.7737 85.6949 92.2518 83.703 92.2518 81.3525C92.2518 79.002 91.7737 77.0101 90.8574 75.3767C89.9411 73.7035 88.5866 72.4685 86.8735 71.592C85.1206 70.7156 83.049 70.2773 80.6188 70.2773H72.0137V92.5074H80.579C83.049 92.5074 85.1605 92.0691 86.8735 91.1927ZM76.8342 88.6032V74.2214H80.2205C84.9613 74.2214 87.3516 76.6117 87.3516 81.3924C87.3516 83.8225 86.754 85.6153 85.5588 86.8104C84.3637 88.0056 82.5709 88.6032 80.2205 88.6032H76.8342Z" fill="#BEA972"/>
<path d="M111.376 91.3934C113.01 90.4373 114.245 89.1226 115.121 87.4095C115.998 85.6965 116.436 83.6647 116.436 81.354C116.436 79.0434 115.998 77.0515 115.121 75.3384C114.245 73.6253 113.01 72.3106 111.376 71.3944C109.743 70.4781 107.831 70 105.6 70C103.369 70 101.456 70.4781 99.823 71.3944C98.1896 72.3106 96.9546 73.6253 96.0383 75.3384C95.1619 77.0515 94.7236 79.0434 94.7236 81.354C94.7236 83.7045 95.1619 85.6965 96.0383 87.4095C96.9148 89.1226 98.1896 90.4373 99.823 91.3934C101.456 92.3495 103.369 92.7878 105.6 92.7878C107.831 92.8276 109.743 92.3495 111.376 91.3934ZM101.217 87.0908C100.142 85.816 99.6238 83.9037 99.6238 81.354C99.6238 78.8442 100.142 76.9718 101.217 75.6969C102.293 74.4221 103.727 73.7847 105.6 73.7847C107.432 73.7847 108.866 74.4221 109.942 75.6969C111.018 76.9718 111.536 78.884 111.536 81.354C111.536 83.8639 111.018 85.7363 109.942 87.051C108.866 88.3657 107.432 89.0031 105.6 89.0031C103.727 89.0429 102.293 88.3657 101.217 87.0908Z" fill="#BEA972"/>
<path d="M134.24 83.5436C133.842 83.2249 133.364 83.0257 132.886 82.9461C133.842 82.6274 134.679 82.1891 135.356 81.5915C136.75 80.3964 137.428 78.8028 137.428 76.8109C137.428 74.7393 136.75 73.1059 135.436 71.9904C134.121 70.8749 132.129 70.2773 129.539 70.2773H119.62V92.5074H124.4V83.5436H127.548C128.185 83.5436 128.783 83.6632 129.261 83.8624C129.739 84.0616 130.137 84.4998 130.336 85.0974L133.165 92.5074H138.304L135.635 85.6153C135.356 84.699 134.878 83.9819 134.24 83.5436ZM128.783 79.8386H124.4V74.0222H128.783C130.217 74.0222 131.213 74.2612 131.85 74.7393C132.488 75.2173 132.806 75.9344 132.806 76.9304C132.806 77.9264 132.488 78.6435 131.85 79.1215C131.213 79.5996 130.177 79.8386 128.783 79.8386Z" fill="#BEA972"/>
<path d="M157.108 85.6175C156.75 84.6614 156.272 83.9841 155.674 83.5061C155.276 83.1873 154.798 82.9881 154.32 82.9085C155.276 82.5898 156.112 82.1515 156.79 81.554C158.184 80.3588 158.861 78.7652 158.861 76.7733C158.861 74.7017 158.184 73.0683 156.869 71.9528C155.555 70.8373 153.563 70.2397 150.973 70.2397H141.053V92.4698H145.874V83.5459H149.021C149.658 83.5459 150.256 83.6654 150.734 83.8646C151.212 84.0638 151.61 84.502 151.81 85.0996L154.638 92.5096H159.777L157.108 85.6175ZM150.176 79.8409H145.754V74.0244H150.176C151.611 74.0244 152.606 74.2635 153.244 74.7415C153.881 75.2196 154.2 75.9367 154.2 76.9327C154.2 77.9286 153.881 78.6457 153.244 79.1238C152.606 79.6019 151.571 79.8409 150.176 79.8409Z" fill="#BEA972"/>
<path d="M57.912 114.937H62.2943V119.877C61.8959 119.996 61.4577 120.076 61.0194 120.155C60.2226 120.275 59.4259 120.355 58.6291 120.355C56.3583 120.355 54.6851 119.717 53.5696 118.442C52.4541 117.168 51.8963 115.255 51.8963 112.666C51.8963 110.156 52.4143 108.284 53.4899 107.049C54.5655 105.814 56.1591 105.176 58.3104 105.176C59.4657 105.176 60.5015 105.335 61.4975 105.694C62.4536 106.013 63.4894 106.57 64.5252 107.327L66.0789 103.822C65.2025 103.025 64.0472 102.427 62.6528 101.989C61.2585 101.551 59.7844 101.352 58.1909 101.352C55.8802 101.352 53.9281 101.83 52.2151 102.746C50.5418 103.662 49.2272 104.977 48.3109 106.69C47.3946 108.403 46.9165 110.435 46.9165 112.745C46.9165 115.136 47.3946 117.168 48.3109 118.881C49.2272 120.594 50.5418 121.908 52.2947 122.825C54.0078 123.741 56.0794 124.219 58.4299 124.219C59.4259 124.219 60.4218 124.139 61.4178 124.02C62.4138 123.9 63.3699 123.701 64.2464 123.462C65.1627 123.223 65.9594 122.904 66.7164 122.546V111.63H57.9518V114.937H57.912Z" fill="#BEA972"/>
<path d="M79.7431 107.568C78.5479 107.568 77.4722 107.926 76.5161 108.644C75.8389 109.161 75.3608 109.839 75.0421 110.675L74.7234 107.926H70.3013C70.4208 108.683 70.4606 109.44 70.5005 110.197C70.5403 110.954 70.5403 111.711 70.5403 112.468V123.782H75.2413V115.496C75.2413 114.699 75.4006 114.022 75.6795 113.464C75.9982 112.906 76.3966 112.468 76.9543 112.149C77.5121 111.831 78.1893 111.671 79.0658 111.671C79.8227 111.671 80.6195 111.831 81.3764 112.189L81.4163 107.887C81.2171 107.807 80.9781 107.727 80.6992 107.687C80.4203 107.608 80.1016 107.568 79.7431 107.568Z" fill="#BEA972"/>
<path d="M95.2388 108.564C94.0038 107.887 92.5298 107.568 90.8566 107.568C89.1435 107.568 87.6695 107.926 86.4345 108.564C85.1995 109.241 84.2035 110.197 83.5262 111.432C82.849 112.667 82.5303 114.101 82.5303 115.814C82.5303 117.528 82.849 118.962 83.5262 120.197C84.2035 121.432 85.1596 122.388 86.4345 123.065C87.6695 123.742 89.1435 124.061 90.8566 124.061C92.5298 124.061 93.964 123.742 95.2388 123.065C96.4738 122.388 97.4698 121.432 98.1471 120.197C98.8243 118.962 99.143 117.488 99.143 115.814C99.143 114.141 98.7845 112.667 98.1471 111.432C97.5097 110.197 96.4738 109.241 95.2388 108.564ZM93.5258 119.32C92.8884 120.077 92.0119 120.476 90.8566 120.476C89.6614 120.476 88.7451 120.077 88.1475 119.32C87.5101 118.563 87.1914 117.408 87.1914 115.814C87.1914 114.261 87.5101 113.105 88.1475 112.349C88.785 111.592 89.7013 111.193 90.8566 111.193C92.0119 111.193 92.8884 111.592 93.5258 112.349C94.1632 113.105 94.4819 114.261 94.4819 115.814C94.4421 117.368 94.1234 118.563 93.5258 119.32Z" fill="#BEA972"/>
<path d="M112.45 116.693C112.45 117.808 112.132 118.685 111.534 119.362C110.937 120.039 110.14 120.358 109.184 120.358C108.347 120.358 107.71 120.119 107.311 119.641C106.913 119.163 106.714 118.446 106.714 117.45V107.968H102.013V117.41C102.013 119.641 102.491 121.314 103.487 122.39C104.483 123.505 105.957 124.063 107.909 124.063C109.104 124.063 110.14 123.784 111.016 123.187C111.654 122.748 112.211 122.191 112.61 121.474V123.784H117.191V107.968H112.45V116.693Z" fill="#BEA972"/>
<path d="M134.201 108.604C133.166 107.887 131.931 107.568 130.576 107.568C129.301 107.568 128.146 107.887 127.19 108.524C126.353 109.082 125.756 109.799 125.397 110.675L125.078 108.006H120.656C120.776 108.763 120.816 109.52 120.855 110.277C120.895 111.034 120.895 111.791 120.895 112.548V130.555H125.596V121.511C125.955 122.189 126.473 122.746 127.19 123.145C128.146 123.742 129.301 124.061 130.576 124.061C131.97 124.061 133.166 123.742 134.201 123.065C135.237 122.388 136.074 121.432 136.671 120.237C137.269 119.002 137.588 117.567 137.588 115.934C137.588 114.301 137.269 112.827 136.671 111.592C136.114 110.277 135.277 109.281 134.201 108.604ZM131.931 119.28C131.293 120.077 130.417 120.436 129.261 120.436C128.066 120.436 127.15 120.037 126.552 119.241C125.915 118.444 125.596 117.289 125.596 115.814C125.596 114.34 125.915 113.145 126.552 112.349C127.19 111.552 128.066 111.153 129.261 111.153C130.417 111.153 131.293 111.552 131.931 112.388C132.568 113.225 132.887 114.38 132.887 115.854C132.847 117.368 132.568 118.524 131.931 119.28Z" fill="#BEA972"/>
</svg>
